<?xml version="1.0" standalone="no"?>
<!DOCTYPE svg PUBLIC "-//W3C//DTD SVG 20010904//EN"
 "http://www.w3.org/TR/2001/REC-SVG-20010904/DTD/svg10.dtd">
<svg version="1.0" xmlns="http://www.w3.org/2000/svg"
 width="200.000000pt" height="100.000000pt" viewBox="0 0 200.000000 100.000000"
 preserveAspectRatio="xMidYMid meet">
<metadata>
Created by potrace 1.10, written by Peter Selinger 2001-2011
</metadata>
<g transform="translate(0.000000,100.000000) scale(0.100000,-0.100000)"
fill="#000000" stroke="none">
<path d="M193 883 c7 -133 24 -205 72 -310 102 -222 294 -383 535 -449 91 -25
309 -25 400 0 287 79 508 298 584 581 24 85 34 295 15 295 -11 0 -13 -14 -11
-61 19 -326 -199 -652 -513 -769 -471 -174 -983 130 -1055 629 -7 43 -10 106
-8 140 2 47 0 61 -11 61 -11 0 -13 -21 -8 -117z"/>
</g>
</svg>
